<mxfile host="app.diagrams.net" agent="Mozilla/5.0 (Windows NT 10.0; Win64; x64; rv:135.0) Gecko/20100101 Firefox/135.0" version="26.0.16">
  <diagram name="Страница — 1" id="Y4Gvs2_gyDiESTWAmNXA">
    <mxGraphModel dx="1122" dy="691" grid="1" gridSize="10" guides="1" tooltips="1" connect="1" arrows="1" fold="1" page="1" pageScale="1" pageWidth="827" pageHeight="1169" math="0" shadow="0">
      <root>
        <mxCell id="0" />
        <mxCell id="1" parent="0" />
        <mxCell id="9Z-CPgGaJP1sNocLHaD2-35" style="edgeStyle=orthogonalEdgeStyle;rounded=0;orthogonalLoop=1;jettySize=auto;html=1;exitX=1;exitY=0.75;exitDx=0;exitDy=0;entryX=0;entryY=0.75;entryDx=0;entryDy=0;" edge="1" parent="1" source="9Z-CPgGaJP1sNocLHaD2-1" target="9Z-CPgGaJP1sNocLHaD2-3">
          <mxGeometry relative="1" as="geometry" />
        </mxCell>
        <mxCell id="9Z-CPgGaJP1sNocLHaD2-1" value="" style="rounded=0;whiteSpace=wrap;html=1;" vertex="1" parent="1">
          <mxGeometry x="40" y="210" width="200" height="190" as="geometry" />
        </mxCell>
        <mxCell id="9Z-CPgGaJP1sNocLHaD2-2" value="Database" style="rounded=0;whiteSpace=wrap;html=1;" vertex="1" parent="1">
          <mxGeometry x="40" y="160" width="80" height="50" as="geometry" />
        </mxCell>
        <mxCell id="9Z-CPgGaJP1sNocLHaD2-33" style="edgeStyle=orthogonalEdgeStyle;rounded=0;orthogonalLoop=1;jettySize=auto;html=1;exitX=0.5;exitY=1;exitDx=0;exitDy=0;entryX=0.5;entryY=0;entryDx=0;entryDy=0;" edge="1" parent="1" source="9Z-CPgGaJP1sNocLHaD2-3" target="9Z-CPgGaJP1sNocLHaD2-5">
          <mxGeometry relative="1" as="geometry" />
        </mxCell>
        <mxCell id="9Z-CPgGaJP1sNocLHaD2-36" style="edgeStyle=orthogonalEdgeStyle;rounded=0;orthogonalLoop=1;jettySize=auto;html=1;exitX=0;exitY=0.25;exitDx=0;exitDy=0;entryX=1;entryY=0.25;entryDx=0;entryDy=0;" edge="1" parent="1" source="9Z-CPgGaJP1sNocLHaD2-3" target="9Z-CPgGaJP1sNocLHaD2-1">
          <mxGeometry relative="1" as="geometry" />
        </mxCell>
        <mxCell id="9Z-CPgGaJP1sNocLHaD2-3" value="" style="rounded=0;whiteSpace=wrap;html=1;" vertex="1" parent="1">
          <mxGeometry x="320" y="210" width="200" height="190" as="geometry" />
        </mxCell>
        <mxCell id="9Z-CPgGaJP1sNocLHaD2-4" value="Service" style="rounded=0;whiteSpace=wrap;html=1;" vertex="1" parent="1">
          <mxGeometry x="320" y="160" width="80" height="50" as="geometry" />
        </mxCell>
        <mxCell id="9Z-CPgGaJP1sNocLHaD2-34" style="edgeStyle=orthogonalEdgeStyle;rounded=0;orthogonalLoop=1;jettySize=auto;html=1;exitX=0.75;exitY=0;exitDx=0;exitDy=0;entryX=0.75;entryY=1;entryDx=0;entryDy=0;" edge="1" parent="1" source="9Z-CPgGaJP1sNocLHaD2-5" target="9Z-CPgGaJP1sNocLHaD2-3">
          <mxGeometry relative="1" as="geometry" />
        </mxCell>
        <mxCell id="9Z-CPgGaJP1sNocLHaD2-38" style="edgeStyle=orthogonalEdgeStyle;rounded=0;orthogonalLoop=1;jettySize=auto;html=1;exitX=1;exitY=0.75;exitDx=0;exitDy=0;entryX=0;entryY=0.75;entryDx=0;entryDy=0;" edge="1" parent="1" source="9Z-CPgGaJP1sNocLHaD2-5" target="9Z-CPgGaJP1sNocLHaD2-7">
          <mxGeometry relative="1" as="geometry" />
        </mxCell>
        <mxCell id="9Z-CPgGaJP1sNocLHaD2-5" value="" style="rounded=0;whiteSpace=wrap;html=1;" vertex="1" parent="1">
          <mxGeometry x="320" y="470" width="200" height="190" as="geometry" />
        </mxCell>
        <mxCell id="9Z-CPgGaJP1sNocLHaD2-6" value="Controller" style="rounded=0;whiteSpace=wrap;html=1;" vertex="1" parent="1">
          <mxGeometry x="320" y="420" width="80" height="50" as="geometry" />
        </mxCell>
        <mxCell id="9Z-CPgGaJP1sNocLHaD2-37" style="edgeStyle=orthogonalEdgeStyle;rounded=0;orthogonalLoop=1;jettySize=auto;html=1;exitX=0;exitY=0.25;exitDx=0;exitDy=0;entryX=1;entryY=0.25;entryDx=0;entryDy=0;" edge="1" parent="1" source="9Z-CPgGaJP1sNocLHaD2-7" target="9Z-CPgGaJP1sNocLHaD2-5">
          <mxGeometry relative="1" as="geometry" />
        </mxCell>
        <mxCell id="9Z-CPgGaJP1sNocLHaD2-40" style="edgeStyle=orthogonalEdgeStyle;rounded=0;orthogonalLoop=1;jettySize=auto;html=1;exitX=1;exitY=0.75;exitDx=0;exitDy=0;entryX=0;entryY=0.75;entryDx=0;entryDy=0;" edge="1" parent="1" source="9Z-CPgGaJP1sNocLHaD2-7" target="9Z-CPgGaJP1sNocLHaD2-25">
          <mxGeometry relative="1" as="geometry" />
        </mxCell>
        <mxCell id="9Z-CPgGaJP1sNocLHaD2-7" value="" style="rounded=0;whiteSpace=wrap;html=1;" vertex="1" parent="1">
          <mxGeometry x="600" y="470" width="200" height="190" as="geometry" />
        </mxCell>
        <mxCell id="9Z-CPgGaJP1sNocLHaD2-8" value="Model" style="rounded=0;whiteSpace=wrap;html=1;" vertex="1" parent="1">
          <mxGeometry x="600" y="420" width="80" height="50" as="geometry" />
        </mxCell>
        <mxCell id="9Z-CPgGaJP1sNocLHaD2-11" value="SchedulingApp" style="rounded=0;whiteSpace=wrap;html=1;" vertex="1" parent="1">
          <mxGeometry x="80" y="287.5" width="120" height="35" as="geometry" />
        </mxCell>
        <mxCell id="9Z-CPgGaJP1sNocLHaD2-15" value="NotificationSender" style="rounded=0;whiteSpace=wrap;html=1;" vertex="1" parent="1">
          <mxGeometry x="360" y="240" width="120" height="35" as="geometry" />
        </mxCell>
        <mxCell id="9Z-CPgGaJP1sNocLHaD2-16" value="CategoryService" style="rounded=0;whiteSpace=wrap;html=1;" vertex="1" parent="1">
          <mxGeometry x="360" y="340" width="120" height="35" as="geometry" />
        </mxCell>
        <mxCell id="9Z-CPgGaJP1sNocLHaD2-17" value="TaskService" style="rounded=0;whiteSpace=wrap;html=1;" vertex="1" parent="1">
          <mxGeometry x="360" y="287.5" width="120" height="35" as="geometry" />
        </mxCell>
        <mxCell id="9Z-CPgGaJP1sNocLHaD2-18" value="TaskController" style="rounded=0;whiteSpace=wrap;html=1;" vertex="1" parent="1">
          <mxGeometry x="360" y="510" width="120" height="35" as="geometry" />
        </mxCell>
        <mxCell id="9Z-CPgGaJP1sNocLHaD2-19" value="CategoryController" style="rounded=0;whiteSpace=wrap;html=1;" vertex="1" parent="1">
          <mxGeometry x="360" y="585" width="120" height="35" as="geometry" />
        </mxCell>
        <mxCell id="9Z-CPgGaJP1sNocLHaD2-20" value="Task" style="rounded=0;whiteSpace=wrap;html=1;" vertex="1" parent="1">
          <mxGeometry x="640" y="480" width="120" height="35" as="geometry" />
        </mxCell>
        <mxCell id="9Z-CPgGaJP1sNocLHaD2-21" value="Category" style="rounded=0;whiteSpace=wrap;html=1;" vertex="1" parent="1">
          <mxGeometry x="640" y="525" width="120" height="35" as="geometry" />
        </mxCell>
        <mxCell id="9Z-CPgGaJP1sNocLHaD2-22" value="Subtask" style="rounded=0;whiteSpace=wrap;html=1;" vertex="1" parent="1">
          <mxGeometry x="640" y="567" width="120" height="35" as="geometry" />
        </mxCell>
        <mxCell id="9Z-CPgGaJP1sNocLHaD2-23" value="Notification" style="rounded=0;whiteSpace=wrap;html=1;" vertex="1" parent="1">
          <mxGeometry x="640" y="610" width="120" height="35" as="geometry" />
        </mxCell>
        <mxCell id="9Z-CPgGaJP1sNocLHaD2-39" style="edgeStyle=orthogonalEdgeStyle;rounded=0;orthogonalLoop=1;jettySize=auto;html=1;exitX=0;exitY=0.25;exitDx=0;exitDy=0;entryX=1;entryY=0.25;entryDx=0;entryDy=0;" edge="1" parent="1" source="9Z-CPgGaJP1sNocLHaD2-25" target="9Z-CPgGaJP1sNocLHaD2-7">
          <mxGeometry relative="1" as="geometry" />
        </mxCell>
        <mxCell id="9Z-CPgGaJP1sNocLHaD2-25" value="" style="rounded=0;whiteSpace=wrap;html=1;" vertex="1" parent="1">
          <mxGeometry x="880" y="470" width="200" height="190" as="geometry" />
        </mxCell>
        <mxCell id="9Z-CPgGaJP1sNocLHaD2-26" value="View" style="rounded=0;whiteSpace=wrap;html=1;" vertex="1" parent="1">
          <mxGeometry x="880" y="420" width="80" height="50" as="geometry" />
        </mxCell>
        <mxCell id="9Z-CPgGaJP1sNocLHaD2-27" value="MainActivity" style="rounded=0;whiteSpace=wrap;html=1;" vertex="1" parent="1">
          <mxGeometry x="920" y="480" width="120" height="35" as="geometry" />
        </mxCell>
        <mxCell id="9Z-CPgGaJP1sNocLHaD2-28" value="TaskActivity" style="rounded=0;whiteSpace=wrap;html=1;" vertex="1" parent="1">
          <mxGeometry x="920" y="525" width="120" height="35" as="geometry" />
        </mxCell>
        <mxCell id="9Z-CPgGaJP1sNocLHaD2-29" value="CategoryActivity" style="rounded=0;whiteSpace=wrap;html=1;" vertex="1" parent="1">
          <mxGeometry x="920" y="567" width="120" height="35" as="geometry" />
        </mxCell>
        <mxCell id="9Z-CPgGaJP1sNocLHaD2-30" value="SearchActivity" style="rounded=0;whiteSpace=wrap;html=1;" vertex="1" parent="1">
          <mxGeometry x="920" y="610" width="120" height="35" as="geometry" />
        </mxCell>
      </root>
    </mxGraphModel>
  </diagram>
</mxfile>
